<?xml version="1.0" encoding="utf-8"?>
<svg xmlns="http://www.w3.org/2000/svg" width="32" height="32" viewBox="0 0 32 32">
  <g fill="none" fill-rule="evenodd" stroke="#3F50FF" stroke-width=".954" transform="translate(2 2)">
    <path d="M25.1287573,6.31856832 C22.7105946,2.51996316 18.4625418,0 13.6259201,0 C6.10053221,0 0,6.10053221 0,13.6259201 C0,21.1513079 6.10053221,27.2518401 13.6259201,27.2518401 L13.6259201,27.2518401 C21.1513079,27.2518401 27.2518401,21.1513079 27.2518401,13.6259201 C27.2518401,12.04884 26.9839125,10.5343378 26.4910921,9.12544812 C26.369732,8.77850017 26.2347338,8.43795682 26.0867404,8.10446071"/>
    <circle cx="13.598" cy="13.626" r="2.044"/>
    <path d="M14.4434753,11.7645457 L14.4434753,3.54451091 C14.4434753,3.09098802 14.0774433,2.72518401 13.6259201,2.72518401 C13.1753155,2.72518401 12.8083649,3.09200915 12.8083649,3.54451091 L12.8083649,11.7401553 C13.0513071,11.6383049 13.3180879,11.5820321 13.5980119,11.5820321 C13.8995391,11.5820321 14.1858161,11.6473258 14.4434753,11.7645457 Z"/>
    <line x1="15.667" x2="23.254" y1="13.626" y2="13.626"/>
    <polyline points="22.786 6.205 25.388 6.571 25.754 3.968"/>
  </g>
</svg>
