<?xml version="1.0" encoding="utf-8"?>
<svg xmlns="http://www.w3.org/2000/svg" width="30" height="32" viewBox="0 0 30 32">
  <g fill="none" fill-rule="evenodd" stroke="#3F50FF" stroke-linecap="round" stroke-linejoin="round" stroke-width="1.177" transform="translate(3 2)">
    <path d="M10.2398994,4.11949974 C10.1221994,3.88409976 10.0044994,3.53099978 10.0044994,3.06019981 C10.0044994,1.76549989 11.0637993,0.706199956 12.3584992,0.706199956 C13.6531991,0.706199956 14.7124991,1.76549989 14.7124991,3.06019981 C14.7124991,3.41329979 14.5947991,3.76639977 14.4770991,4.11949974"/>
    <circle cx="12.358" cy="16.007" r="11.417"/>
    <line x1="12.358" x2="12.358" y1="7.18" y2="4.473"/>
    <line x1="12.358" x2="12.358" y1="27.424" y2="24.717"/>
    <line x1="21.068" x2="23.775" y1="15.889" y2="15.889"/>
    <line x1=".942" x2="3.649" y1="15.889" y2="15.889"/>
    <polygon points="14.242 17.89 6.238 22.128 10.475 14.006"/>
    <polygon points="10.475 14.006 18.479 9.769 14.242 17.89"/>
  </g>
</svg>
