<?xml version="1.0" encoding="utf-8"?>
<svg xmlns="http://www.w3.org/2000/svg" width="32" height="30" viewBox="0 0 32 30">
  <path fill="#3F50FF" d="M25.9774402,6.08727277 C24.9048362,5.0281298 23.4448733,4.45509682 21.9381965,4.5018764 C21.2603865,3.28755473 20.2684634,2.27787706 19.0663565,1.57863274 C17.438504,0.695966284 15.5697948,0.360642072 13.736611,0.62225455 C11.1994083,0.762442135 8.84412948,1.98391673 7.26786915,3.97701821 C6.77357165,4.63337919 6.3796744,5.35962725 6.09911278,6.13191277 C5.27450213,6.160009 4.46261599,6.34358981 3.70613822,6.67300369 C2.18679769,7.34773436 1.02266997,8.63220441 0.500174557,10.2103855 C0.116250883,11.2763319 0.122481433,12.4438411 0.517760012,13.5056292 C0.887050714,14.4295927 1.55333234,15.2043831 2.41157821,15.7078692 C2.41747218,16.7013671 2.71062064,17.6719516 3.25568003,18.5026038 C4.22428414,19.9505749 5.84911215,20.8225575 7.59117098,20.8292947 C7.87687286,20.8294652 8.16203887,20.8045697 8.44338916,20.7548947 C8.9466871,20.6663085 9.43344975,20.501165 9.88674917,20.2652074 C10.080797,20.5300756 10.2592099,20.806051 10.4210765,21.0917238 C11.605298,23.2830576 11.9766337,25.822515 11.4694401,28.2611784 C11.423411,28.4990238 11.4860343,28.7449967 11.6401956,28.9318748 C11.794357,29.1187528 12.0239381,29.2270258 12.2661965,29.2270258 L17.8299638,29.2270258 C18.0783782,29.2270258 18.3131746,29.1135245 18.4671973,28.9186225 C18.6212199,28.7237206 18.6775059,28.4690166 18.6199565,28.2273602 C17.9871573,25.6127472 18.2975828,22.858679 19.4965238,20.4505311 C19.7392182,20.5965836 19.9956621,20.7184624 20.2621674,20.8144147 C20.7908661,21.0159651 21.3520935,21.1186734 21.9179056,21.1174256 C22.9999037,21.1121453 24.053364,20.769818 24.931782,20.1380511 C26.5768937,18.9938077 27.3724991,16.972511 26.9486984,15.0139201 C26.7980354,14.3999213 26.5129695,13.8270173 26.1140657,13.3365383 C26.6628551,12.7817836 27.0734224,12.1056913 27.312582,11.3629092 C27.8738738,9.49269379 27.3607979,7.46534227 25.9774402,6.08727277 L25.9774402,6.08727277 Z M25.7691202,10.8718692 C25.5938649,11.3975226 25.292429,11.8722028 24.8912002,12.2543565 C24.3145177,11.8710886 23.6676471,11.6058119 22.9879129,11.4738328 C22.1291456,11.3052455 21.2420098,11.3517167 20.4055565,11.6091055 C20.0278993,11.0464764 19.5434853,10.5634412 18.979782,10.1873892 C18.0115147,9.5518444 16.8672195,9.23842967 15.7102401,9.29188371 C15.2623727,9.30946941 14.9135426,9.68676304 14.9310692,10.1346328 C14.9662868,10.5741554 15.3328876,10.9130993 15.7738183,10.9138037 C16.5870923,10.8726083 17.3924104,11.0909916 18.0734547,11.537411 C19.113996,12.3155997 19.7489262,13.5208742 19.8022402,14.8191274 C19.8182592,15.2557187 20.1769916,15.6012975 20.6138765,15.6010038 L20.6436365,15.6010038 C21.0914789,15.5848571 21.4414886,15.2088086 21.4255129,14.7609601 C21.3978796,14.1955641 21.2946042,13.6364209 21.1184438,13.0984583 C21.6394988,12.9711088 22.1822588,12.9604846 22.7078984,13.0673456 C23.9399144,13.3248647 24.9475834,14.2078577 25.3646547,15.3953892 C25.6312947,16.7179792 25.0756533,18.0710542 23.9564656,18.8245529 C23.043985,19.4707405 21.8773633,19.6412081 20.8181383,19.2831274 C20.6324838,19.216155 20.4543142,19.1300171 20.2865165,19.0261092 C20.5678838,18.5905311 20.8194911,18.2442329 21.003462,18.0048001 C21.1803435,17.7749991 21.2211915,17.468289 21.1106187,17.2002046 C21.000046,16.9321202 20.7548512,16.7433898 20.4673969,16.7051064 C20.1799426,16.666823 19.8938999,16.7848027 19.7170183,17.0146038 C19.280056,17.5867322 18.8788835,18.1853286 18.5157965,18.8069674 L18.5022692,18.8313165 L18.5022692,18.8313165 C16.9398257,21.4682932 16.351527,24.5696661 16.8397674,27.5956366 L13.2036365,27.5956366 C13.5343386,25.0765186 13.05288,22.5175854 11.8292656,20.2909092 C11.6355675,19.9498977 11.4219162,19.6206127 11.1894255,19.3047711 C12.0325094,18.4550001 12.5692657,17.3491299 12.7153019,16.1610329 C12.7693858,15.7161627 12.4526771,15.3116476 12.0078256,15.257411 C11.5644572,15.2086601 11.1632571,15.5227733 11.1042037,15.9648874 C10.9248078,17.5578326 9.73263852,18.8502164 8.15931643,19.1573238 C6.77451915,19.3802799 5.38679548,18.7757271 4.60705459,17.6098038 C3.70976535,16.1808355 3.87576385,14.3288456 5.01287277,13.0822256 C5.21437828,12.8661655 5.28256375,12.5576756 5.19089263,12.2768147 C5.09922151,11.9959538 4.86217512,11.7870896 4.57200767,11.7315083 C4.28184022,11.675927 3.98438958,11.7824088 3.79541822,12.0095128 C3.3088433,12.5623347 2.93645653,13.2059661 2.69970912,13.903331 C2.40361516,13.6275058 2.17258152,13.2892726 2.02334548,12.9131346 C1.77000472,12.1971724 1.77815086,11.414664 2.04634184,10.704131 C2.42846855,9.576317 3.26113824,8.65744151 4.34597822,8.16641461 C5.05602781,7.86230714 5.82721592,7.72798609 6.59826915,7.7741237 L6.63208733,7.7741237 C7.35737619,7.81797031 8.04177883,8.12482125 8.55701826,8.6371637 C9.24808792,9.44427745 9.55154285,10.5132889 9.38759281,11.5631128 C9.31699274,12.0061376 9.6189026,12.4225128 10.0619274,12.4931128 C10.5049521,12.5637129 10.9213273,12.261803 10.9919274,11.8187783 C11.241486,10.2624861 10.7769353,8.67655471 9.72712736,7.50087278 C9.18452523,6.95010082 8.50817647,6.54969863 7.76432007,6.33888005 C7.97265754,5.84888945 8.23974855,5.38602255 8.55972371,4.96045095 C9.86535082,3.32822547 11.8085841,2.33468895 13.8962328,2.23200002 C15.3936454,2.00188567 16.92528,2.26491281 18.2601311,2.98141093 C19.0353386,3.43219796 19.699956,4.05059716 20.2053529,4.79136004 C20.0592583,4.83870549 19.9131638,4.89281458 19.7697747,4.95233458 C19.3734979,5.13510948 19.1926802,5.59851758 19.3604475,6.00137746 C19.5282148,6.40423734 19.9845071,6.60232681 20.393382,6.44980369 C20.7400484,6.30629052 21.1037756,6.20808419 21.4755638,6.15761459 C21.5411306,6.15829497 21.6065383,6.15102746 21.6703565,6.13597096 C22.8318556,6.00827442 23.9898198,6.40500734 24.8289747,7.21815278 C25.7784636,8.17509283 26.1378748,9.56981515 25.7691202,10.8664583 L25.7691202,10.8718692 Z M14.4819638,18.8840729 C15.3056381,20.3228773 15.7152872,21.9614736 15.6656001,23.6186184 C15.6524327,24.057336 15.2928789,24.4061032 14.8539638,24.4059057 L14.8269092,24.4059057 C14.3791093,24.3926512 14.0267326,24.0190834 14.0396219,23.5712729 C14.0801451,22.2133818 13.7444798,20.8707205 13.0697165,19.6916511 C12.9247316,19.4401023 12.9249597,19.1303132 13.0703149,18.8789782 C13.21567,18.6276432 13.4840694,18.4729462 13.7744094,18.4731598 C14.0647495,18.4733738 14.3329207,18.6284659 14.4779056,18.8800147 L14.4819638,18.8840729 Z" transform="translate(1 1)"/>
</svg>
