<?xml version="1.0" encoding="utf-8"?>
<svg xmlns="http://www.w3.org/2000/svg" width="30" height="32" viewBox="0 0 30 32">
  <g fill="none" fill-rule="evenodd">
    <path fill="#3F50FF" fill-rule="nonzero" d="M15,32 C7.776,32 0,30.0972069 0,25.9159292 C0,24.4420631 1.0005,22.3917312 5.7615,21 L6.08593192,22.1 C3.11743192,22.9685011 1.85169922,23.5310413 1.48714473,25.95 C1.09226595,28.5701719 7.125,30.5998646 15,30.5998646 C22.875,30.5998646 28.6928591,29.0623806 28.4259641,25.9144082 C28.2697035,24.071346 26.8964213,23.3518067 24.1214213,22.5000368 L24.5115,21.082135 C29.0475,22.4738662 30,24.4785675 30,25.9144082 C30,30.0972069 22.224,32 15,32 Z"/>
    <path stroke="#3F50FF" stroke-linecap="round" stroke-linejoin="round" d="M17.1818182,25.4583333 L17.7272727,18.9583333 L20.4545455,18.9583333 L20.4545455,15.1666667 C20.4545455,12.1751243 18.0124623,9.75 15,9.75 C11.9875377,9.75 9.54545455,12.1751243 9.54545455,15.1666667 L9.54545455,18.9583333 L12.2727273,18.9583333 L12.8181818,25.4583333 L17.1818182,25.4583333 Z"/>
    <ellipse cx="15" cy="4.333" stroke="#3F50FF" stroke-linecap="round" stroke-linejoin="round" rx="3.818" ry="3.792"/>
  </g>
</svg>
