<?xml version="1.0" encoding="utf-8"?>
<svg xmlns="http://www.w3.org/2000/svg" width="30" height="32" viewBox="0 0 30 32">
  <g fill="#3F50FF">
    <path d="M15.5 9C17.4329966 9 19 7.43299662 19 5.5 19 3.56700338 17.4329966 2 15.5 2 13.5670034 2 12 3.56700338 12 5.5 12 7.43299662 13.5670034 9 15.5 9zM15.5 3.16666667C16.7886644 3.16666667 17.8333333 4.21133558 17.8333333 5.5 17.8333333 6.78866442 16.7886644 7.83333333 15.5 7.83333333 14.2113356 7.83333333 13.1666667 6.78866442 13.1666667 5.5 13.1666667 4.21133558 14.2113356 3.16666667 15.5 3.16666667zM23.5 7C25.4329966 7 27 5.43299662 27 3.5 27 1.56700338 25.4329966 0 23.5 0 21.5670034 0 20 1.56700338 20 3.5 20 5.43299662 21.5670034 7 23.5 7zM23.5 1.16666667C24.7886644 1.16666667 25.8333333 2.21133558 25.8333333 3.5 25.8333333 4.78866442 24.7886644 5.83333333 23.5 5.83333333 22.2113356 5.83333333 21.1666667 4.78866442 21.1666667 3.5 21.1666667 2.21133558 22.2113356 1.16666667 23.5 1.16666667zM6.5 7C8.43299662 7 10 5.43299662 10 3.5 10 1.56700338 8.43299662 0 6.5 0 4.56700338 0 3 1.56700338 3 3.5 3 5.43299662 4.56700338 7 6.5 7zM6.5 1.16666667C7.78866442 1.16666667 8.83333333 2.21133558 8.83333333 3.5 8.83333333 4.78866442 7.78866442 5.83333333 6.5 5.83333333 5.21133558 5.83333333 4.16666667 4.78866442 4.16666667 3.5 4.16666667 2.21133558 5.21133558 1.16666667 6.5 1.16666667z"/>
    <path d="M23.750014,9.00340863 C21.7763947,9.00595716 19.9210307,9.96549381 18.7500252,11.5892476 L18.7500252,11.5892476 C16.5399146,9.84811926 13.4590165,9.84916889 11.250042,11.5918027 L11.250042,11.5918027 C9.65070617,9.37333661 6.8370232,8.45748617 4.27702755,9.32209488 C1.7170319,10.1867036 -0.00876552402,12.6357107 3.34904992e-05,15.3913507 L3.34904992e-05,18.5853217 C3.34904992e-05,19.6437106 0.83953145,20.5017043 1.87506304,20.5017043 L2.50006163,20.5017043 L2.50006163,26.2508522 C2.50006163,27.3092411 3.33952585,28.1672348 4.37505743,28.1672348 L8.12504903,28.1672348 C9.16058061,28.1672348 10.0000448,27.3092411 10.0000448,26.2508522 L10.0000448,22.939343 C10.2002116,23.0149756 10.4116465,23.0547383 10.6250434,23.0568811 L11.250042,23.0568811 L11.250042,30.0836174 C11.250042,31.1420063 12.0895062,32 13.1250378,32 L16.8750294,32 C17.910561,32 18.7500252,31.1420063 18.7500252,30.0836174 L18.7500252,23.0568811 L19.3750238,23.0568811 C19.5884207,23.0547383 19.7998556,23.0149756 20.0000224,22.939343 L20.0000224,26.2508522 C20.0000224,27.3092411 20.8394866,28.1672348 21.8750182,28.1672348 L25.6250098,28.1672348 C26.6605414,28.1672348 27.5000056,27.3092411 27.5000056,26.2508522 L27.5000056,20.5017043 L28.1250042,20.5017043 C29.1605358,20.5017043 30,19.6437106 30,18.5853217 L30,15.3913507 C30,13.6971631 29.3415212,12.0723651 28.1694215,10.8743935 C26.9973217,9.67642202 25.4076134,9.00340863 23.750014,9.00340863 Z M8.75003864,26.2508522 C8.75003864,26.6036485 8.47022622,26.8896464 8.12504903,26.8896464 L4.37505743,26.8896464 C4.02988024,26.8896464 3.75005883,26.6036485 3.75005883,26.2508522 L3.75005883,20.5017043 C3.75005883,19.7961117 3.19041602,19.2241159 2.50006163,19.2241159 L1.87506304,19.2241159 C1.52988584,19.2241159 1.25003864,18.938118 1.25003864,18.5853217 L1.25003864,15.3913507 C1.24308135,13.1609837 2.65453229,11.1845561 4.7349998,10.5114627 C6.81546732,9.83836936 9.08255647,10.6246794 10.3325441,12.4528973 L10.3325441,12.4528973 C9.31640721,13.6119497 8.75311468,15.1126576 8.75003864,16.6689391 L8.75003864,26.2508522 Z M19.3750238,21.7792927 L18.7500252,21.7792927 C18.0596708,21.7792927 17.500028,22.3512885 17.500028,23.0568811 L17.500028,30.0836174 C17.500028,30.4364137 17.2202066,30.7224116 16.8750294,30.7224116 L13.1250378,30.7224116 C12.7798606,30.7224116 12.5000448,30.4364137 12.5000448,30.0836174 L12.5000448,23.0568811 C12.5000448,22.3512885 11.9403964,21.7792927 11.250042,21.7792927 L10.6250434,21.7792927 C10.2798662,21.7792927 10.0000448,21.4932948 10.0000448,21.1404985 L10.0000448,16.6689391 C10.0000448,13.8465687 12.2386161,11.5585855 15.0000336,11.5585855 C17.7614512,11.5585855 20.0000224,13.8465687 20.0000224,16.6689391 L20.0000224,21.1404985 C20.0000224,21.4932948 19.720201,21.7792927 19.3750238,21.7792927 Z M28.7500286,18.5853217 C28.7500286,18.938118 28.4701814,19.2241159 28.1250042,19.2241159 L27.5000056,19.2241159 C26.8096512,19.2241159 26.2500084,19.7961117 26.2500084,20.5017043 L26.2500084,26.2508522 C26.2500084,26.6036485 25.970187,26.8896464 25.6250098,26.8896464 L21.8750182,26.8896464 C21.529841,26.8896464 21.2500196,26.6036485 21.2500196,26.2508522 L21.2500196,16.6689391 C21.2469526,15.1126576 20.68366,13.6119497 19.6675232,12.4528973 L19.6675232,12.4528973 C20.9175108,10.6246794 23.1845999,9.83836936 25.2650674,10.5114627 C27.3455349,11.1845561 28.7569859,13.1609837 28.7500286,15.3913507 L28.7500286,18.5853217 Z"/>
  </g>
</svg>
