<?xml version="1.0" encoding="utf-8"?>
<svg xmlns="http://www.w3.org/2000/svg" width="30" height="32" viewBox="0 0 30 32">
  <g fill="none" fill-rule="evenodd" stroke="#3F50FF" stroke-linejoin="round" stroke-width=".855" transform="translate(4 3)">
    <path d="M20.6706297,9.69892702 C21.6666964,11.3651683 22.2393599,13.314106 22.2393599,15.39648 C22.2393599,21.5375371 17.2607371,26.5161599 11.11968,26.5161599 C4.97862287,26.5161599 0,21.5375371 0,15.39648 C0,9.25542286 4.97862287,4.27679999 11.11968,4.27679999"/>
    <line x1="11.12" x2="11.12" y1="5.56" y2="26.516"/>
    <line x2="22.239" y1="15.396" y2="15.396"/>
    <path d="M16.67952,15.39648 C16.67952,21.5375371 14.1904224,26.5161599 11.11968,26.5161599 C8.04893758,26.5161599 5.55983999,21.5375371 5.55983999,15.39648 C5.55983999,9.25542286 8.04893758,4.27679999 11.11968,4.27679999"/>
    <line x1="2.138" x2="11.975" y1="8.981" y2="8.981"/>
    <line x1="2.138" x2="20.101" y1="21.812" y2="21.812"/>
    <path d="M22.2393599,5.55983999 C22.2393599,8.98127998 16.67952,15.39648 16.67952,15.39648 C16.67952,15.39648 11.11968,8.98127998 11.11968,5.55983999 C11.11968,2.48909759 13.6087776,0 16.67952,0 C19.7502624,0 22.2393599,2.48909759 22.2393599,5.55983999 Z"/>
    <circle cx="16.68" cy="5.56" r="3.421"/>
  </g>
</svg>
