<?xml version="1.0" encoding="utf-8"?><svg enable-background="new 0 0 333.1 127.4" fill="#0d1355" opacity=".35" viewBox="0 0 333.1 127.4" xmlns="http://www.w3.org/2000/svg"><path d="m217.4 2h.9v36.8h-.9z"/><path d="m310.4 2h3.1v36.8h-3.1z"/><path d="m239.8 3.2c-.3-.1-.6-.2-.9-.3v36h.9z"/><path d="m220 2h3.5v36.8h-3.5z"/><path d="m128.4 22.1h17.3v16.8h4.9v-37h-4.9v15.8h-17.3v-15.8h-4.9v37h4.9z"/><path d="m104.1 38.9h4.9v-32.6h11.6v-4.4h-28v4.4h11.5z"/><path d="m225.2 2h.6v36.8h-.6z"/><path d="m245.1 22.4c-.2-.6-.6-1.2-1-1.8.5-.6.8-1.3 1-2v-10c-.7-2.2-1.9-3.6-3.5-4.6v34.8h3.5z"/><path d="m288.2 2h1.2v36.8h-1.2z"/><path d="m179.1 34.4h-19.4v-12.3h18.8v-4.4h-18.8v-11.4h19.4v-4.4h-24.3v37h24.3z"/><path d="m265.1 28.4c-.2.1-.3.1-.6.1v10.6h.6z"/><path d="m252.8 2h-.9v34c.3.2.6.5.9.7z"/><path d="m272.3 2h-5.8v17.2 5.3c-.1 1.6-.1 2.6-.5 3.2v11.3c2.4-.3 4.6-1 6.3-2z"/><path d="m280.2 2h6.2v36.8h-6.2z"/><path d="m290 2v36.8h1v-11l3 11h4.6v-20.4l-4.7-16.4z"/><path d="m277.5 28.8v-26.8h-4.5v34.5c2.3-1.6 3.9-4.1 4.5-7.7"/><path d="m307.4 27.8v11h1.2v-36.8h-4l-5.1 18.1v18.7h4.7z"/><path d="m264 39.2v-10.6c-.3 0-.7 0-1.2 0-2.8 0-3.1-.6-3.3-1.2-.6-1.8-.4-6.2-.4-8.2v-17.2h-5.8v35c2.5 1.6 5.8 2.2 9.5 2.2z"/><path d="m316.9 2h1.3v36.8h-1.3z"/><path d="m215.7 2h.9v36.8h-.9z"/><path d="m211.9 8.9v23.1c1.4-2.8 1.6-6.2 1.6-11.6.1-5.3-.2-8.7-1.6-11.5"/><path d="m204.3 38.2v-35.5c-2-.5-4.3-.7-6.9-.7h-15v36.8h15c2.6 0 4.9-.1 6.9-.6"/><path d="m249.9 33.5v-31.5h-2v18.3c0 3.3 0 5.2.1 6.8.1 2.6.8 4.7 1.9 6.4"/><path d="m211.1 33.6v-26.2c-1.6-2.4-3.7-3.8-6.2-4.5v35.1c2.5-.7 4.6-2.1 6.2-4.4"/><path d="m234.6 28.7v10.2h3.5v-36.3c-1.5-.4-3-.5-4.6-.6v24.4c.3 0 .7.1 1 .2.2.5.1 1.5.1 2.1"/><path d="m227 26.4h2.7c.9 0 1.9-.1 2.9 0v-24.4c-.8 0-1.6 0-2.4 0h-3.8v36.8h.6z"/><path d="m323.8 5.4h.8l1.1 1.7h.5l-1.1-1.7c.5-.1.9-.4.9-1 0-.7-.4-1-1.2-1h-1.4v3.6h.5v-1.6zm0-1.7h.8c.5 0 .9.1.9.6 0 .6-.6.7-1.1.7h-.6z"/><path d="m324.5 8.4c1.8 0 3.2-1.4 3.2-3.2s-1.4-3.2-3.2-3.2-3.2 1.4-3.2 3.2 1.4 3.2 3.2 3.2m0-6c1.6 0 2.7 1.2 2.7 2.8s-1.2 2.8-2.7 2.8c-1.6 0-2.7-1.2-2.7-2.8s1.2-2.8 2.7-2.8"/><path d="m100 57.9 13.7 24.1h8.2v-37h-7.4v24.1l-13.8-24.1h-8.1v37h7.4z"/><path d="m151.4 52.2v-7.2h-26.3v37h26.3v-7.2h-18.2v-8.1h17.7v-7.2h-17.7v-7.3z"/><path d="m164.9 82h8.1v-29.8h11v-7.2h-30.1v7.2h11z"/><path d="m199.1 70.9-5.2-25.9h-7.8l8.2 37h8.5l6.7-28.3 6.6 28.3h8.5l8.4-37h-7.6l-5.1 25.9-6.4-25.9h-8.6z"/><path d="m248.7 82.5c14.9 0 15.6-7.8 15.6-19 0-10.4-.2-18.8-15.7-18.8s-15.6 8.5-15.6 18.9c0 10.3.2 18.9 15.7 18.9m-.1-30.6c6.5 0 7.6 2 7.6 11.6s-1.1 11.6-7.6 11.6-7.5-2-7.5-11.6 1-11.6 7.5-11.6"/><path d="m297.4 55.7c0-10.3-6.9-10.6-15.3-10.6h-14.1v37h8.1v-14.2h5.4c4 0 6.2 0 7 .8s.9 1.4.9 4.1v9.2h7.9v-9c0-3.1.4-7.9-3.6-9.1 2.9-1.2 3.7-3.8 3.7-8.2m-16.5 5.1h-4.8v-8.7h4.4c6 0 9-.5 9 4.3s-2.4 4.4-8.6 4.4"/><path d="m314.6 63.5 18.3-18.5h-10.5l-13.7 14.2v-14.2h-8.1v37h8.1v-13.4l13.1 13.4h11.3z"/><path d="m106.6 88.2-14.1 36.9h8.5l3-8.4h13.1l3 8.4h8.6l-14-36.9zm0 21.4 4-11.5 4 11.5z"/><path d="m163.2 88.2-5 25.8-6.5-25.8h-8.6l-6.1 25.8-5.2-25.8h-7.8l8.2 36.9h8.5l6.7-28.3 6.5 28.3h8.6l8.3-36.9z"/><path d="m227.9 107c2.8-1.2 3.6-3.8 3.6-8.2 0-10.3-6.9-10.6-15.2-10.6h-14.1v36.8l-13.9-36.8h-8.1l-14.1 36.9h8.5l3-8.4h13.1l3 8.4h8.5 8v-14.1h5.4c4 0 6.2 0 7 .8s.9 1.4.9 4.1v9.1h7.9v-9c.1-3 .5-7.9-3.5-9m-47.8 2.6 4-11.5 4 11.5zm35-5.7h-4.8v-8.6h4.4c6 0 9-.5 9 4.3-.1 4.7-2.4 4.3-8.6 4.3"/><path d="m249.3 88.2h-14.6v36.9h14.6c6.9 0 10.8-1.1 13.5-5 1.9-2.9 2.4-6.2 2.4-13.5 0-7.2-.5-10.6-2.4-13.5-2.6-3.8-6.6-4.9-13.5-4.9m-.5 29.7h-6v-22.5h6c6.4 0 8.4.4 8.4 11.3s-2 11.2-8.4 11.2"/><path d="m282.4 102.5c-4.3-.2-7.2-.1-7.2-3.7 0-2.4.9-3.9 6.8-3.9 3.5 0 7.6.4 7.6 4.2h8c0-8.7-5.9-11.3-15.4-11.3s-14.9 2.4-14.9 11.5c0 10.2 7.4 10.5 14.9 11 4.8.3 7.6-.1 7.6 4 0 3.3-2.9 4-7.4 4-4 0-7.1-.8-7.2-4h-8.1c-.1 8.9 6 11.3 15.5 11.3 10.1 0 15.3-3.8 15.3-12-.2-10.8-7.8-10.7-15.5-11.1"/><path d="m31.5 13.5c3.7-.7 6.1-4.3 5.3-8-.7-3.7-4.3-6.1-8-5.3-3.7.7-6.1 4.3-5.3 8 .7 3.6 4.3 6 8 5.3"/><path d="m58.7 69.3c-3.2.6-5.7 2.7-7.1 5.4l-20.6-3.5c0-.3-.1-.5-.1-.8-1.1-5.5-6.4-9-11.9-7.9s-9 6.4-7.9 11.9 6.4 9 11.9 7.9c3.2-.6 5.7-2.7 7.1-5.4l20.6 3.5c0 .3.1.5.1.8 1.1 5.5 6.4 9 11.9 7.9s9-6.4 7.9-11.9-6.4-9-11.9-7.9"/><path d="m44.2 92.2c-.9-4.7-5.5-7.7-10.2-6.8s-7.7 5.5-6.8 10.2 5.5 7.7 10.2 6.8c4.7-1 7.7-5.6 6.8-10.2"/><path d="m74.4 51.1c-2.5.5-4.6 2.1-5.8 4.1l-47.1-9.2c0-.4-.1-.9-.2-1.3-1.2-5.8-6.8-9.6-12.7-8.4-5.8 1.2-9.6 6.8-8.4 12.7 1.2 5.8 6.8 9.6 12.7 8.4 3.4-.7 6.1-2.9 7.5-5.8l47.2 9.2c0 .1 0 .3.1.4.9 4.7 5.5 7.7 10.2 6.8s7.7-5.5 6.8-10.2c-1-4.6-5.6-7.7-10.3-6.7"/><path d="m51.3 108.8c-.6-2.8-3.3-4.7-6.2-4.1-2.8.6-4.7 3.3-4.1 6.2.6 2.8 3.3 4.7 6.2 4.1 2.8-.6 4.7-3.4 4.1-6.2"/><path d="m19 102.6c-2.8.6-4.7 3.3-4.1 6.2.6 2.8 3.3 4.7 6.2 4.1 2.8-.6 4.7-3.3 4.1-6.2-.6-2.8-3.4-4.7-6.2-4.1"/><path d="m18.4 30.4c2.1-.4 3.9-1.6 5.1-3.2l51 15.9c.7 2.6 3.4 4.3 6.1 3.7 2.8-.6 4.7-3.3 4.1-6.2-.6-2.8-3.3-4.7-6.2-4.1-.9.2-1.7.6-2.3 1.1l-51-15.9c0-.4-.1-.9-.1-1.3-.9-4.6-5.4-7.5-10-6.6s-7.5 5.4-6.6 10c.9 4.5 5.4 7.5 9.9 6.6"/><path d="m49.7 120.5c-1.9.4-3.1 2.2-2.7 4.1s2.2 3.1 4.1 2.7 3.1-2.2 2.7-4.1c-.4-1.8-2.2-3.1-4.1-2.7"/><path d="m76.1 32c1.9 0 3.5-1.6 3.5-3.5s-1.6-3.5-3.5-3.5-3.5 1.6-3.5 3.5c.1 2 1.6 3.5 3.5 3.5"/></svg>