<?xml version="1.0" encoding="UTF-8" standalone="no"?>
<svg
   xmlns:dc="http://purl.org/dc/elements/1.1/"
   xmlns:cc="http://creativecommons.org/ns#"
   xmlns:rdf="http://www.w3.org/1999/02/22-rdf-syntax-ns#"
   xmlns:svg="http://www.w3.org/2000/svg"
   xmlns="http://www.w3.org/2000/svg"
   xmlns:sodipodi="http://sodipodi.sourceforge.net/DTD/sodipodi-0.dtd"
   xmlns:inkscape="http://www.inkscape.org/namespaces/inkscape"
   version="1.1"
   id="svg2"
   xml:space="preserve"
   width="3333.3333"
   height="3333.3333"
   viewBox="0 0 3333.3333 3333.3333"
   sodipodi:docname="1497_logo.ai"><metadata
     id="metadata8"><rdf:RDF><cc:Work
         rdf:about=""><dc:format>image/svg+xml</dc:format><dc:type
           rdf:resource="http://purl.org/dc/dcmitype/StillImage" /></cc:Work></rdf:RDF></metadata><defs
     id="defs6"><clipPath
       clipPathUnits="userSpaceOnUse"
       id="clipPath34"><path
         d="M 0,2500 H 2500 V 0 H 0 Z"
         id="path32" /></clipPath><linearGradient
       x1="0"
       y1="0"
       x2="1"
       y2="0"
       gradientUnits="userSpaceOnUse"
       gradientTransform="matrix(0,1315.0482,1315.0482,0,1342.0734,767.60309)"
       spreadMethod="pad"
       id="linearGradient80"><stop
         style="stop-opacity:1;stop-color:#8cc63f"
         offset="0"
         id="stop76" /><stop
         style="stop-opacity:1;stop-color:#227606"
         offset="1"
         id="stop78" /></linearGradient></defs><sodipodi:namedview
     pagecolor="#ffffff"
     bordercolor="#666666"
     borderopacity="1"
     objecttolerance="10"
     gridtolerance="10"
     guidetolerance="10"
     inkscape:pageopacity="0"
     inkscape:pageshadow="2"
     inkscape:window-width="640"
     inkscape:window-height="480"
     id="namedview4" /><g
     id="g10"
     inkscape:groupmode="layer"
     inkscape:label="1497_logo"
     transform="matrix(1.3333333,0,0,-1.3333333,0,3333.3333)"><g
       id="g12"
       transform="translate(237.604,419.293)"><path
         d="M 0,0 -98.894,148.936 V 31.871 l 20.852,-4.17 V 0 h -81.916 v 27.701 l 20.851,4.17 v 152.215 l -20.851,3.873 v 27.999 h 60.767 L 0,66.724 v 117.362 l -21.148,3.873 v 27.999 H 61.064 V 187.959 L 39.915,184.086 V 0 Z"
         style="fill:#157649;fill-opacity:1;fill-rule:nonzero;stroke:none"
         id="path14" /></g><g
       id="g16"
       transform="translate(419.0068,589.377)"><path
         d="m 0,0 -23.234,-74.169 h 48.256 z m 19.064,45.874 67.915,-184.087 20.851,-3.872 v -27.999 H 25.915 v 27.999 l 20.554,3.872 -11.32,33.362 h -67.915 l -10.425,-33.362 20.553,-3.872 v -27.999 h -81.32 v 27.999 l 20.852,3.872 53.914,152.215 -20.255,3.873 v 27.999 z"
         style="fill:#157649;fill-opacity:1;fill-rule:nonzero;stroke:none"
         id="path18" /></g><g
       id="g20"
       transform="translate(546.793,564.9521)"><path
         d="M 0,0 H -30.382 V 70.299 H 159.959 V 0 h -30.384 l -3.872,37.234 H 84.895 v -151.022 l 27.106,-3.872 v -27.999 H 17.576 v 27.999 l 27.106,3.872 V 37.234 H 3.873 Z"
         style="fill:#157649;fill-opacity:1;fill-rule:nonzero;stroke:none"
         id="path22" /></g><g
       id="g24"
       transform="translate(809.5137,607.252)"><path
         d="M 0,0 -20.852,-3.873 V -156.088 L 0,-159.96 v -27.999 h -81.915 v 27.999 l 20.851,3.872 V -3.873 L -81.915,0 v 27.999 l 81.915,0 z"
         style="fill:#157649;fill-opacity:1;fill-rule:nonzero;stroke:none"
         id="path26" /></g><g
       id="g28"><g
         id="g30"
         clip-path="url(#clipPath34)"><g
           id="g36"
           transform="translate(929.2583,448.7822)"><path
             d="m 0,0 c 17.872,0 31.522,7.098 40.957,21.298 9.429,14.194 14.148,33.706 14.148,58.531 0,22.238 -4.667,40.707 -14,55.405 -9.336,14.694 -23.038,22.043 -41.105,22.043 -17.874,0 -31.575,-7.349 -41.107,-22.043 -9.337,-14.698 -14,-33.167 -14,-55.405 0,-24.425 4.766,-43.838 14.298,-58.233 C -31.277,7.195 -17.678,0 0,0 M 95.318,79.829 C 95.318,45.077 87.374,17.374 71.488,-3.276 55.599,-23.533 31.872,-33.66 0.296,-33.66 c -31.974,0 -55.901,10.127 -71.786,30.384 -15.889,20.65 -23.83,48.353 -23.83,83.105 0,32.767 7.941,59.474 23.83,80.128 16.085,20.65 40.012,30.98 71.786,30.98 31.576,0 55.303,-10.33 71.192,-30.98 15.886,-20.654 23.83,-47.361 23.83,-80.128"
             style="fill:#157649;fill-opacity:1;fill-rule:nonzero;stroke:none"
             id="path38" /></g><g
           id="g40"
           transform="translate(1208.959,419.293)"><path
             d="M 0,0 -98.893,148.936 V 31.871 l 20.851,-4.17 V 0 h -81.915 v 27.701 l 20.851,4.17 v 152.215 l -20.851,3.873 v 27.999 H -99.19 L 0,66.724 v 117.362 l -21.147,3.873 v 27.999 H 61.065 V 187.959 L 39.917,184.086 V 0 Z"
             style="fill:#157649;fill-opacity:1;fill-rule:nonzero;stroke:none"
             id="path42" /></g><g
           id="g44"
           transform="translate(1390.3633,589.377)"><path
             d="m 0,0 -23.233,-74.169 h 48.254 z m 19.064,45.874 67.915,-184.087 20.852,-3.872 v -27.999 H 25.915 v 27.999 l 20.552,3.872 -11.317,33.362 h -67.917 l -10.424,-33.362 20.551,-3.872 v -27.999 h -81.317 v 27.999 l 20.851,3.872 53.914,152.215 -20.254,3.873 v 27.999 z"
             style="fill:#157649;fill-opacity:1;fill-rule:nonzero;stroke:none"
             id="path46" /></g><g
           id="g48"
           transform="translate(1596.4873,607.252)"><path
             d="m 0,0 -20.851,-3.873 v -152.215 h 64.638 l 3.873,30.384 h 29.192 v -62.255 H -81.914 v 27.999 l 20.851,3.872 V -3.873 L -81.914,0 v 27.999 l 81.914,0 z"
             style="fill:#157649;fill-opacity:1;fill-rule:nonzero;stroke:none"
             id="path50" /></g><g
           id="g52"
           transform="translate(1944.9951,447.292)"><path
             d="M 0,0 20.853,3.872 15.788,119.15 -33.063,-5.36 H -65.83 L -114.68,119.448 -119.744,3.872 -98.894,0 v -27.999 h -81.914 v 27.701 l 20.851,4.17 7.745,151.321 -20.85,3.872 v 28.894 h 64.935 L -49.147,37.83 9.235,187.959 H 74.171 V 159.96 l -20.85,-3.873 7.744,-152.215 20.851,-4.17 v -27.701 l -81.916,0 z"
             style="fill:#157649;fill-opacity:1;fill-rule:nonzero;stroke:none"
             id="path54" /></g><g
           id="g56"
           transform="translate(2049.25,607.5469)"><path
             d="M 0,0 V 27.704 H 84.298 V 0 L 63.447,-3.87 99.788,-51.827 133.744,-3.87 112.894,0 v 27.704 h 84 V 0 l -18.766,-3.87 -56.297,-76.851 57.488,-75.96 19.065,-3.872 v -27.701 h -83.406 v 27.701 l 19.362,3.872 -39.021,51.83 -36.936,-51.83 19.362,-3.872 v -27.701 h -82.81 v 27.701 l 19.064,3.872 59.277,80.724 -54.509,72.087 z"
             style="fill:#157649;fill-opacity:1;fill-rule:nonzero;stroke:none"
             id="path58" /></g><g
           id="g60"
           transform="translate(2387.9355,458.6113)"><path
             d="M 0,0 3.276,26.511 H 33.064 V -18.17 c -6.552,-6.954 -16.383,-12.91 -29.489,-17.873 -12.91,-4.962 -26.712,-7.446 -41.405,-7.446 -32.37,0 -56.894,9.926 -73.573,29.787 -16.682,19.856 -25.024,48.154 -25.024,84.894 0,33.162 8.44,59.671 25.32,79.533 16.878,20.254 41.302,30.383 73.277,30.383 12.512,0 24.725,-1.742 36.638,-5.213 11.916,-3.477 21.249,-7.797 28.002,-12.957 L 26.512,114.682 H -3.574 l -3.574,26.511 c -6.753,4.168 -16.783,6.255 -30.086,6.255 -18.273,0 -32.668,-6.953 -43.192,-20.85 C -90.953,112.693 -96.214,93.832 -96.214,70 c 0,-24.028 5.066,-43.391 15.193,-58.085 10.322,-14.498 24.324,-21.744 42,-21.744 8.735,0 16.83,0.992 24.277,2.978 C -7.298,-4.867 -2.382,-2.583 0,0"
             style="fill:#157649;fill-opacity:1;fill-rule:nonzero;stroke:none"
             id="path62" /></g></g></g><g
       id="g64"><g
         id="g66"><g
           id="g72"><g
             id="g74"><path
               d="M 1206.583,2073.3 697.481,1779.322 c -2.301,-1.341 -5.449,-2.782 -7.573,-4.35 v 0 c -17.677,-13.024 -30.626,-33.684 -30.626,-55.862 v 0 -587.959 c 0,-24.833 15.637,-47.771 37.132,-60.211 v 0 l 510.71,-293.98 c 10.773,-6.221 22.573,-9.356 34.585,-9.356 v 0 c 12.013,0 23.247,3.135 34.019,9.356 v 0 l 507.049,293.98 c 21.495,12.44 32.192,35.378 32.192,60.211 v 0 493.987 l 209.895,122.042 v 160.886 l -232.447,-136.002 -136.222,-80.038 -410.926,-238.37 -262.293,150.643 v -160.683 l 227.072,-130.539 c 10.773,-6.221 24.207,-9.357 36.245,-9.357 v 0 c 12.088,0 23.202,3.161 34.001,9.433 v 0 l 395.588,231.112 V 1171.259 L 1237.126,917.488 798.369,1171.259 v 507.743 l 29.65,16.058 412.87,237.712 344.097,-199.045 134.198,83.401 -442.566,256.172 c -10.773,6.234 -22.902,9.351 -35.027,9.351 v 0 c -12.125,0 -24.247,-3.117 -35.008,-9.351"
               style="fill:url(#linearGradient80);stroke:none"
               id="path82" /></g></g></g></g></g></svg>
